<?xml version="1.0" encoding="UTF-8"?>
<!-- Generated by Pixelmator Pro 3.7 -->
<svg width="1100" height="720" viewBox="0 0 1100 720" xmlns="http://www.w3.org/2000/svg">
    <g id="Group">
        <path id="Path" fill="#ffffff" stroke="#1e3a5f" stroke-width="1.5" d="M 44 40 L 236 40 C 238.209137 40 240 41.790833 240 44 L 240 156 C 240 158.209106 238.209137 160 236 160 L 44 160 C 41.790859 160 40 158.209106 40 156 L 40 44 C 40 41.790833 41.790859 40 44 40 Z"/>
        <path id="path1" fill="#1e3a5f" stroke="none" d="M 44 40 L 236 40 C 238.209137 40 240 41.790833 240 44 L 240 66 C 240 68.209167 238.209137 70 236 70 L 44 70 C 41.790859 70 40 68.209167 40 66 L 40 44 C 40 41.790833 41.790859 40 44 40 Z"/>
        <path id="path2" fill="#1e3a5f" stroke="none" d="M 40 55 L 240 55 L 240 70 L 40 70 Z"/>
        <text id="Depot" xml:space="preserve" x="119.152344" y="60" font-family="Helvetica" font-size="16" fill="#ffffff">Depot</text>
        <text id="code" xml:space="preserve" x="53" y="90" font-family="Helvetica" font-size="13" fill="#1e3a5f">code</text>
        <text id="name" xml:space="preserve" x="53" y="110" font-family="Helvetica" font-size="13" fill="#1e3a5f">name</text>
        <text id="location" xml:space="preserve" x="53" y="130" font-family="Helvetica" font-size="13" fill="#1e3a5f">location</text>
    </g>
    <g id="g1">
        <path id="path3" fill="#ffffff" stroke="#1e3a5f" stroke-width="1.5" d="M 824 40 L 1036 40 C 1038.209106 40 1040 41.790833 1040 44 L 1040 196 C 1040 198.209106 1038.209106 200 1036 200 L 824 200 C 821.790833 200 820 198.209106 820 196 L 820 44 C 820 41.790833 821.790833 40 824 40 Z"/>
        <path id="path4" fill="#1e3a5f" stroke="none" d="M 824 40 L 1036 40 C 1038.209106 40 1040 41.790833 1040 44 L 1040 66 C 1040 68.209167 1038.209106 70 1036 70 L 824 70 C 821.790833 70 820 68.209167 820 66 L 820 44 C 820 41.790833 821.790833 40 824 40 Z"/>
        <path id="path5" fill="#1e3a5f" stroke="none" d="M 820 55 L 1040 55 L 1040 70 L 820 70 Z"/>
        <text id="ServiceArea" xml:space="preserve" x="886.425781" y="60" font-family="Helvetica" font-size="16" fill="#ffffff">ServiceArea</text>
        <text id="text1" xml:space="preserve" x="833" y="90" font-family="Helvetica" font-size="13" fill="#1e3a5f">code</text>
        <text id="text2" xml:space="preserve" x="833" y="110" font-family="Helvetica" font-size="13" fill="#1e3a5f">name</text>
        <text id="population" xml:space="preserve" x="833" y="130" font-family="Helvetica" font-size="13" fill="#1e3a5f">population</text>
        <text id="boundary" xml:space="preserve" x="833" y="150" font-family="Helvetica" font-size="13" fill="#1e3a5f">boundary</text>
        <text id="depotid" xml:space="preserve" x="833" y="170" font-family="Helvetica" font-size="13" font-style="italic" fill="#6b7280">depot_id</text>
    </g>
    <g id="g2">
        <path id="path6" fill="#ffffff" stroke="#1e3a5f" stroke-width="1.5" d="M 44 240 L 236 240 C 238.209137 240 240 241.790863 240 244 L 240 396 C 240 398.209137 238.209137 400 236 400 L 44 400 C 41.790859 400 40 398.209137 40 396 L 40 244 C 40 241.790863 41.790859 240 44 240 Z"/>
        <path id="path7" fill="#1e3a5f" stroke="none" d="M 44 240 L 236 240 C 238.209137 240 240 241.790863 240 244 L 240 266 C 240 268.209137 238.209137 270 236 270 L 44 270 C 41.790859 270 40 268.209137 40 266 L 40 244 C 40 241.790863 41.790859 240 44 240 Z"/>
        <path id="path8" fill="#1e3a5f" stroke="none" d="M 40 255 L 240 255 L 240 270 L 40 270 Z"/>
        <text id="User" xml:space="preserve" x="123.109375" y="260" font-family="Helvetica" font-size="16" fill="#ffffff">User</text>
        <text id="emailaddress" xml:space="preserve" x="53" y="290" font-family="Helvetica" font-size="13" fill="#1e3a5f">email_address</text>
        <text id="text3" xml:space="preserve" x="53" y="310" font-family="Helvetica" font-size="13" fill="#1e3a5f">name</text>
        <text id="role" xml:space="preserve" x="53" y="330" font-family="Helvetica" font-size="13" fill="#1e3a5f">role</text>
        <text id="text4" xml:space="preserve" x="53" y="350" font-family="Helvetica" font-size="13" font-style="italic" fill="#6b7280">depot_id</text>
        <text id="serviceareaid" xml:space="preserve" x="53" y="370" font-family="Helvetica" font-size="13" font-style="italic" fill="#6b7280">service_area_id</text>
    </g>
    <g id="g3">
        <path id="path9" fill="#ffffff" stroke="#1e3a5f" stroke-width="1.5" d="M 44 480 L 236 480 C 238.209137 480 240 481.790863 240 484 L 240 676 C 240 678.209106 238.209137 680 236 680 L 44 680 C 41.790859 680 40 678.209106 40 676 L 40 484 C 40 481.790863 41.790859 480 44 480 Z"/>
        <path id="path10" fill="#1e3a5f" stroke="none" d="M 44 480 L 236 480 C 238.209137 480 240 481.790863 240 484 L 240 506 C 240 508.209137 238.209137 510 236 510 L 44 510 C 41.790859 510 40 508.209137 40 506 L 40 484 C 40 481.790863 41.790859 480 44 480 Z"/>
        <path id="path11" fill="#1e3a5f" stroke="none" d="M 40 495 L 240 495 L 240 510 L 40 510 Z"/>
        <text id="Customer" xml:space="preserve" x="105.324219" y="500" font-family="Helvetica" font-size="16" fill="#ffffff">Customer</text>
        <text id="text5" xml:space="preserve" x="53" y="530" font-family="Helvetica" font-size="13" fill="#1e3a5f">name</text>
        <text id="phone" xml:space="preserve" x="53" y="550" font-family="Helvetica" font-size="13" fill="#1e3a5f">phone</text>
        <text id="email" xml:space="preserve" x="53" y="570" font-family="Helvetica" font-size="13" fill="#1e3a5f">email</text>
        <text id="address" xml:space="preserve" x="53" y="590" font-family="Helvetica" font-size="13" fill="#1e3a5f">address</text>
        <text id="suburb" xml:space="preserve" x="53" y="610" font-family="Helvetica" font-size="13" fill="#1e3a5f">suburb</text>
        <text id="postcode" xml:space="preserve" x="53" y="630" font-family="Helvetica" font-size="13" fill="#1e3a5f">postcode</text>
        <text id="state" xml:space="preserve" x="53" y="650" font-family="Helvetica" font-size="13" fill="#1e3a5f">state</text>
        <text id="text6" xml:space="preserve" x="53" y="670" font-family="Helvetica" font-size="13" fill="#1e3a5f">location</text>
    </g>
    <g id="g4">
        <path id="path12" fill="#ffffff" stroke="#1e3a5f" stroke-width="1.5" d="M 444 360 L 676 360 C 678.209106 360 680 361.790863 680 364 L 680 676 C 680 678.209106 678.209106 680 676 680 L 444 680 C 441.790863 680 440 678.209106 440 676 L 440 364 C 440 361.790863 441.790863 360 444 360 Z"/>
        <path id="path13" fill="#1e3a5f" stroke="none" d="M 444 360 L 676 360 C 678.209106 360 680 361.790863 680 364 L 680 386 C 680 388.209137 678.209106 390 676 390 L 444 390 C 441.790863 390 440 388.209137 440 386 L 440 364 C 440 361.790863 441.790863 360 444 360 Z"/>
        <path id="path14" fill="#1e3a5f" stroke="none" d="M 440 375 L 680 375 L 680 390 L 440 390 Z"/>
        <text id="Job" xml:space="preserve" x="547.101563" y="380" font-family="Helvetica" font-size="16" fill="#ffffff">Job</text>
        <text id="reference" xml:space="preserve" x="453" y="410" font-family="Helvetica" font-size="13" fill="#1e3a5f">reference</text>
        <text id="description" xml:space="preserve" x="453" y="430" font-family="Helvetica" font-size="13" fill="#1e3a5f">description</text>
        <text id="status" xml:space="preserve" x="453" y="450" font-family="Helvetica" font-size="13" fill="#1e3a5f">status</text>
        <text id="priority" xml:space="preserve" x="453" y="470" font-family="Helvetica" font-size="13" fill="#1e3a5f">priority</text>
        <text id="text7" xml:space="preserve" x="453" y="490" font-family="Helvetica" font-size="13" fill="#1e3a5f">location</text>
        <text id="scheduledfor" xml:space="preserve" x="453" y="510" font-family="Helvetica" font-size="13" fill="#1e3a5f">scheduled_for</text>
        <text id="dispatchedat" xml:space="preserve" x="453" y="530" font-family="Helvetica" font-size="13" fill="#1e3a5f">dispatched_at</text>
        <text id="startedat" xml:space="preserve" x="453" y="550" font-family="Helvetica" font-size="13" fill="#1e3a5f">started_at</text>
        <text id="completedat" xml:space="preserve" x="453" y="570" font-family="Helvetica" font-size="13" fill="#1e3a5f">completed_at</text>
        <text id="customerid" xml:space="preserve" x="453" y="600" font-family="Helvetica" font-size="13" font-style="italic" fill="#6b7280">customer_id</text>
        <text id="text8" xml:space="preserve" x="453" y="620" font-family="Helvetica" font-size="13" font-style="italic" fill="#6b7280">service_area_id</text>
        <text id="assignedtoid" xml:space="preserve" x="453" y="640" font-family="Helvetica" font-size="13" font-style="italic" fill="#6b7280">assigned_to_id</text>
    </g>
    <path id="path15" fill="none" stroke="#6b7280" stroke-width="1.2" d="M 140 160 L 140 240"/>
    <text id="1" xml:space="preserve" x="149" y="172" font-family="Helvetica" font-size="12" fill="#1e3a5f">1</text>
    <text id="text9" xml:space="preserve" x="149" y="232" font-family="Helvetica" font-size="12" fill="#1e3a5f">*</text>
    <text id="employs" xml:space="preserve" x="149" y="200" font-family="Helvetica" font-size="12" font-style="italic" fill="#6b7280">employs</text>
    <path id="path16" fill="none" stroke="#6b7280" stroke-width="1.2" d="M 240 80 L 820 80"/>
    <text id="text10" xml:space="preserve" x="251" y="74" font-family="Helvetica" font-size="12" fill="#1e3a5f">1</text>
    <text id="text11" xml:space="preserve" x="804.330078" y="74" font-family="Helvetica" font-size="12" fill="#1e3a5f">*</text>
    <text id="oversees" xml:space="preserve" x="506.154297" y="74" font-family="Helvetica" font-size="12" font-style="italic" fill="#6b7280">oversees</text>
    <path id="path17" fill="none" stroke="#6b7280" stroke-width="1.2" d="M 930 200 L 930 220 L 240 220 L 240 280"/>
    <text id="text12" xml:space="preserve" x="914.326172" y="215" font-family="Helvetica" font-size="12" fill="#1e3a5f">1</text>
    <text id="text13" xml:space="preserve" x="249" y="270" font-family="Helvetica" font-size="12" fill="#1e3a5f">*</text>
    <text id="houses-field-officers" xml:space="preserve" x="532.472656" y="215" font-family="Helvetica" font-size="12" font-style="italic" fill="#6b7280">houses field officers</text>
    <path id="path18" fill="none" stroke="#6b7280" stroke-width="1.2" d="M 930 200 L 930 410 L 680 410"/>
    <text id="text14" xml:space="preserve" x="939" y="220" font-family="Helvetica" font-size="12" fill="#1e3a5f">1</text>
    <text id="text15" xml:space="preserve" x="691" y="405" font-family="Helvetica" font-size="12" fill="#1e3a5f">*</text>
    <text id="contains" xml:space="preserve" x="939" y="305" font-family="Helvetica" font-size="12" font-style="italic" fill="#6b7280">contains</text>
    <path id="path19" fill="none" stroke="#6b7280" stroke-width="1.2" d="M 240 320 L 440 450"/>
    <text id="text16" xml:space="preserve" x="249" y="332" font-family="Helvetica" font-size="12" fill="#1e3a5f">1</text>
    <text id="text17" xml:space="preserve" x="424.330078" y="448" font-family="Helvetica" font-size="12" fill="#1e3a5f">*</text>
    <text id="assigned-to" xml:space="preserve" x="314.311523" y="380" font-family="Helvetica" font-size="12" font-style="italic" fill="#6b7280">assigned to</text>
    <path id="path20" fill="none" stroke="#6b7280" stroke-width="1.2" d="M 240 580 L 440 580"/>
    <text id="text18" xml:space="preserve" x="251" y="572" font-family="Helvetica" font-size="12" fill="#1e3a5f">1</text>
    <text id="text19" xml:space="preserve" x="424.330078" y="572" font-family="Helvetica" font-size="12" fill="#1e3a5f">*</text>
    <text id="requests" xml:space="preserve" x="317.487305" y="572" font-family="Helvetica" font-size="12" font-style="italic" fill="#6b7280">requests</text>
</svg>
